<?xml version="1.0" standalone="no"?>
<!DOCTYPE svg PUBLIC "-//W3C//DTD SVG 20010904//EN"
 "http://www.w3.org/TR/2001/REC-SVG-20010904/DTD/svg10.dtd">
<svg version="1.0" xmlns="http://www.w3.org/2000/svg"
 width="96.000000pt" height="96.000000pt" viewBox="0 0 96.000000 96.000000"
 preserveAspectRatio="xMidYMid meet">
<metadata>
Created by potrace 1.14, written by Peter Selinger 2001-2017
</metadata>
<g transform="translate(0.000000,96.000000) scale(0.100000,-0.100000)"
fill="#000000" stroke="none">
<path d="M220 820 c-11 -11 -20 -29 -20 -39 0 -10 45 -82 100 -160 l100 -140
0 -141 c0 -127 2 -142 20 -160 27 -27 65 -26 84 2 13 18 16 52 16 166 0 112 3
148 16 166 11 17 12 26 4 31 -6 4 -14 4 -17 1 -4 -3 -1 -6 5 -6 6 0 9 -7 6
-15 -6 -14 -8 -13 -20 2 -11 15 -11 20 4 32 16 12 15 13 -4 7 -21 -6 -58 37
-163 192 -59 85 -92 101 -131 62z"/>
<path d="M653 813 c-7 -18 5 -46 16 -38 5 3 12 1 16 -5 3 -5 -2 -10 -11 -10
-10 0 -15 -3 -11 -6 3 -3 15 -3 27 1 20 6 20 7 3 20 -10 7 -21 11 -25 9 -5 -3
-8 4 -8 16 0 12 4 19 9 15 5 -3 12 -2 15 3 3 5 -2 9 -10 9 -9 0 -18 -6 -21
-14z"/>
<path d="M694 809 c-3 -6 -2 -15 3 -20 5 -5 9 -1 9 11 0 23 -2 24 -12 9z"/>
<path d="M624 796 c-3 -8 -12 -12 -20 -9 -8 3 -14 3 -14 0 0 -16 31 -13 40 3
6 11 8 20 5 20 -3 0 -8 -6 -11 -14z"/>
<path d="M592 751 c-11 -7 -10 -9 3 -15 9 -3 13 -10 10 -16 -3 -5 -1 -10 4
-10 14 0 14 17 0 26 -8 4 -7 9 2 15 8 5 10 9 4 9 -5 0 -16 -4 -23 -9z"/>
<path d="M630 740 c0 -5 5 -10 10 -10 6 0 10 5 10 10 0 6 -4 10 -10 10 -5 0
-10 -4 -10 -10z"/>
<path d="M667 733 c-10 -9 -9 -23 1 -23 5 0 9 7 9 15 0 17 -1 18 -10 8z"/>
<path d="M574 715 c3 -9 0 -15 -9 -15 -8 0 -15 -5 -15 -10 0 -17 33 5 36 24 1
9 -2 16 -8 16 -6 0 -8 -7 -4 -15z"/>
<path d="M639 701 c6 -10 7 -22 3 -26 -4 -5 -1 -5 6 -1 9 5 9 12 2 27 -6 10
-13 19 -16 19 -2 0 0 -8 5 -19z"/>
<path d="M586 685 c-11 -8 -15 -15 -9 -15 6 0 16 7 23 15 16 19 11 19 -14 0z"/>
<path d="M621 682 c-1 -13 -5 -21 -10 -17 -6 3 -15 -5 -22 -17 -12 -22 -12
-22 -20 -3 -6 16 -8 17 -8 3 -1 -9 8 -23 19 -31 11 -8 18 -17 15 -20 -3 -4 -2
-5 2 -2 14 11 11 34 -4 28 -13 -5 -13 -3 -2 15 7 11 17 18 21 16 11 -7 21 22
15 38 -3 7 -6 3 -6 -10z"/>
<path d="M515 669 c-4 -6 -5 -12 -2 -15 2 -3 7 2 10 11 7 17 1 20 -8 4z"/>
<path d="M530 648 c-12 -22 -12 -22 6 -6 10 10 15 20 12 24 -4 3 -12 -5 -18
-18z"/>
<path d="M496 636 c6 -15 4 -17 -6 -11 -9 6 -11 4 -5 -4 5 -9 10 -10 18 -2 8
8 7 14 -2 24 -10 10 -11 8 -5 -7z"/>
<path d="M536 622 c-6 -10 -2 -39 6 -48 4 -3 15 -1 25 6 17 10 17 11 -2 5 -16
-4 -21 0 -22 16 -2 18 0 19 15 7 15 -12 16 -11 3 5 -15 19 -18 20 -25 9z"/>
<path d="M480 593 c11 -16 17 -19 27 -11 7 6 13 16 13 22 0 6 -4 5 -9 -3 -8
-13 -12 -13 -27 0 -16 13 -16 12 -4 -8z"/>
</g>
</svg>
